<svg width="328" height="33" viewBox="0 0 328 33" fill="none" xmlns="http://www.w3.org/2000/svg">
<path d="M9.38 13.092C8.11067 13.1293 6.99067 13.484 6.02 14.156C5.068 14.828 4.396 15.752 4.004 16.928V26H2.1V11.412H3.892V14.912C4.396 13.8853 5.05867 13.0547 5.88 12.42C6.72 11.7853 7.60667 11.4307 8.54 11.356C8.72667 11.3373 8.88533 11.328 9.016 11.328C9.16533 11.328 9.28667 11.3373 9.38 11.356V13.092ZM10.6857 21.8C10.6857 20.8853 10.9471 20.1013 11.4697 19.448C11.9924 18.776 12.7111 18.2627 13.6257 17.908C14.5591 17.5347 15.6324 17.348 16.8457 17.348C17.5551 17.348 18.2924 17.404 19.0577 17.516C19.8231 17.628 20.5044 17.796 21.1017 18.02V16.788C21.1017 15.556 20.7377 14.576 20.0097 13.848C19.2817 13.12 18.2737 12.756 16.9857 12.756C16.2017 12.756 15.4271 12.9053 14.6617 13.204C13.9151 13.484 13.1311 13.904 12.3097 14.464L11.5817 13.12C12.5337 12.4667 13.4671 11.9813 14.3817 11.664C15.2964 11.328 16.2297 11.16 17.1817 11.16C18.9737 11.16 20.3924 11.6733 21.4377 12.7C22.4831 13.7267 23.0057 15.1453 23.0057 16.956V23.704C23.0057 23.9653 23.0617 24.1613 23.1737 24.292C23.2857 24.404 23.4631 24.4693 23.7057 24.488V26C23.5004 26.0187 23.3231 26.0373 23.1737 26.056C23.0244 26.0747 22.9124 26.0747 22.8377 26.056C22.3711 26.0373 22.0164 25.888 21.7737 25.608C21.5311 25.328 21.4004 25.0293 21.3817 24.712L21.3537 23.648C20.7004 24.488 19.8511 25.1413 18.8057 25.608C17.7604 26.056 16.6964 26.28 15.6137 26.28C14.6804 26.28 13.8311 26.084 13.0657 25.692C12.3191 25.2813 11.7311 24.74 11.3017 24.068C10.8911 23.3773 10.6857 22.6213 10.6857 21.8ZM20.4577 22.92C20.6631 22.6587 20.8217 22.4067 20.9337 22.164C21.0457 21.9213 21.1017 21.7067 21.1017 21.52V19.392C20.4671 19.1493 19.8044 18.9627 19.1137 18.832C18.4417 18.7013 17.7604 18.636 17.0697 18.636C15.7071 18.636 14.6057 18.9067 13.7657 19.448C12.9257 19.9893 12.5057 20.7267 12.5057 21.66C12.5057 22.2013 12.6457 22.7147 12.9257 23.2C13.2057 23.6667 13.6164 24.0587 14.1577 24.376C14.6991 24.6747 15.3337 24.824 16.0617 24.824C16.9764 24.824 17.8257 24.6467 18.6097 24.292C19.4124 23.9373 20.0284 23.48 20.4577 22.92ZM48.8195 26H46.9155V17.852C46.9155 16.1533 46.6449 14.9027 46.1035 14.1C45.5622 13.2973 44.7595 12.896 43.6955 12.896C42.5942 12.896 41.6049 13.288 40.7275 14.072C39.8689 14.856 39.2622 15.864 38.9075 17.096V26H37.0035V17.852C37.0035 16.1347 36.7422 14.884 36.2195 14.1C35.6969 13.2973 34.8942 12.896 33.8115 12.896C32.7289 12.896 31.7489 13.2787 30.8715 14.044C29.9942 14.8093 29.3782 15.8173 29.0235 17.068V26H27.1195V11.412H28.8555V14.716C29.4715 13.5773 30.2555 12.7 31.2075 12.084C32.1782 11.468 33.2515 11.16 34.4275 11.16C35.6409 11.16 36.6209 11.5053 37.3675 12.196C38.1142 12.8867 38.5715 13.792 38.7395 14.912C39.4115 13.68 40.2142 12.7467 41.1475 12.112C42.0995 11.4773 43.1729 11.16 44.3675 11.16C45.1889 11.16 45.8795 11.3093 46.4395 11.608C47.0182 11.9067 47.4755 12.336 47.8115 12.896C48.1662 13.4373 48.4182 14.1 48.5675 14.884C48.7355 15.6493 48.8195 16.508 48.8195 17.46V26ZM59.066 26.28C58.0207 26.28 57.05 26.084 56.154 25.692C55.2767 25.2813 54.5113 24.7307 53.858 24.04C53.2233 23.3307 52.7287 22.528 52.374 21.632C52.0193 20.7173 51.842 19.756 51.842 18.748C51.842 17.7027 52.0193 16.732 52.374 15.836C52.7287 14.9213 53.2327 14.1187 53.886 13.428C54.5393 12.7187 55.3047 12.168 56.182 11.776C57.078 11.3653 58.0487 11.16 59.094 11.16C60.1393 11.16 61.1007 11.3653 61.978 11.776C62.8553 12.168 63.6207 12.7187 64.274 13.428C64.9273 14.1187 65.4313 14.9213 65.786 15.836C66.1407 16.732 66.318 17.7027 66.318 18.748C66.318 19.756 66.1407 20.7173 65.786 21.632C65.4313 22.528 64.9273 23.3307 64.274 24.04C63.6393 24.7307 62.874 25.2813 61.978 25.692C61.1007 26.084 60.13 26.28 59.066 26.28ZM53.774 18.776C53.774 19.8587 54.0073 20.848 54.474 21.744C54.9593 22.6213 55.6033 23.3213 56.406 23.844C57.2087 24.348 58.0953 24.6 59.066 24.6C60.0367 24.6 60.9233 24.3387 61.726 23.816C62.5287 23.2933 63.1727 22.584 63.658 21.688C64.1433 20.7733 64.386 19.784 64.386 18.72C64.386 17.6373 64.1433 16.648 63.658 15.752C63.1727 14.856 62.5287 14.1467 61.726 13.624C60.9233 13.1013 60.0367 12.84 59.066 12.84C58.0953 12.84 57.2087 13.1107 56.406 13.652C55.622 14.1933 54.9873 14.912 54.502 15.808C54.0167 16.6853 53.774 17.6747 53.774 18.776ZM81.7663 26H79.8623V17.852C79.8623 16.1347 79.6103 14.884 79.1063 14.1C78.6023 13.2973 77.809 12.896 76.7263 12.896C75.9797 12.896 75.2423 13.0827 74.5143 13.456C73.7863 13.8107 73.1423 14.3053 72.5823 14.94C72.041 15.556 71.649 16.2653 71.4063 17.068V26H69.5023V11.412H71.2383V14.716C71.6303 14.0067 72.1437 13.3907 72.7783 12.868C73.413 12.3267 74.1317 11.9067 74.9343 11.608C75.737 11.3093 76.5677 11.16 77.4263 11.16C78.229 11.16 78.9103 11.3093 79.4703 11.608C80.0303 11.9067 80.4783 12.336 80.8143 12.896C81.1503 13.4373 81.393 14.1 81.5423 14.884C81.6917 15.6493 81.7663 16.508 81.7663 17.46V26ZM90.7826 26.28C89.5506 26.28 88.3839 26.084 87.2826 25.692C86.1812 25.2813 85.2386 24.6747 84.4546 23.872L85.6026 21.8C86.4426 22.5467 87.2826 23.088 88.1226 23.424C88.9812 23.76 89.8306 23.928 90.6706 23.928C91.5292 23.928 92.2292 23.7693 92.7706 23.452C93.3119 23.116 93.5826 22.6307 93.5826 21.996C93.5826 21.5293 93.4426 21.184 93.1626 20.96C92.8826 20.736 92.4719 20.54 91.9306 20.372C91.4079 20.204 90.7732 20.0173 90.0266 19.812C88.9812 19.4947 88.1039 19.168 87.3946 18.832C86.6852 18.4773 86.1532 18.048 85.7986 17.544C85.4439 17.04 85.2666 16.396 85.2666 15.612C85.2666 14.66 85.5092 13.848 85.9946 13.176C86.4799 12.504 87.1519 11.9907 88.0106 11.636C88.8879 11.2813 89.8959 11.104 91.0346 11.104C92.0986 11.104 93.0786 11.272 93.9746 11.608C94.8892 11.9253 95.6919 12.4293 96.3826 13.12L95.0666 15.164C94.4132 14.5667 93.7412 14.128 93.0506 13.848C92.3786 13.568 91.6506 13.428 90.8666 13.428C90.4186 13.428 89.9892 13.484 89.5786 13.596C89.1679 13.6893 88.8226 13.876 88.5426 14.156C88.2812 14.4173 88.1506 14.7907 88.1506 15.276C88.1506 15.668 88.2626 15.9853 88.4866 16.228C88.7106 16.4707 89.0466 16.676 89.4946 16.844C89.9426 17.012 90.4932 17.1987 91.1466 17.404C92.2852 17.74 93.2559 18.076 94.0586 18.412C94.8612 18.7293 95.4772 19.1493 95.9066 19.672C96.3546 20.176 96.5786 20.876 96.5786 21.772C96.5786 23.1907 96.0466 24.3013 94.9826 25.104C93.9372 25.888 92.5372 26.28 90.7826 26.28ZM98.2645 21.716C98.2645 20.7827 98.5258 19.9707 99.0485 19.28C99.5898 18.5707 100.327 18.0293 101.26 17.656C102.194 17.264 103.276 17.068 104.508 17.068C105.162 17.068 105.824 17.1147 106.496 17.208C107.187 17.3013 107.794 17.4507 108.316 17.656V16.732C108.316 15.7053 108.008 14.9027 107.392 14.324C106.776 13.7453 105.89 13.456 104.732 13.456C103.911 13.456 103.136 13.6053 102.408 13.904C101.68 14.184 100.906 14.5853 100.084 15.108L99.0485 13.036C100.019 12.3827 100.99 11.8973 101.96 11.58C102.95 11.2627 103.986 11.104 105.068 11.104C107.028 11.104 108.568 11.6267 109.688 12.672C110.827 13.6987 111.396 15.164 111.396 17.068V22.528C111.396 22.8827 111.452 23.1347 111.564 23.284C111.695 23.4333 111.91 23.5173 112.208 23.536V26C111.928 26.056 111.676 26.0933 111.452 26.112C111.228 26.1307 111.042 26.14 110.892 26.14C110.239 26.14 109.744 25.9813 109.408 25.664C109.072 25.3467 108.876 24.9733 108.82 24.544L108.736 23.704C108.102 24.5253 107.29 25.16 106.3 25.608C105.311 26.056 104.312 26.28 103.304 26.28C102.334 26.28 101.466 26.084 100.7 25.692C99.9351 25.2813 99.3378 24.7307 98.9085 24.04C98.4791 23.3493 98.2645 22.5747 98.2645 21.716ZM107.588 22.612C107.812 22.3693 107.99 22.1267 108.12 21.884C108.251 21.6413 108.316 21.4267 108.316 21.24V19.56C107.794 19.3547 107.243 19.2053 106.664 19.112C106.086 19 105.516 18.944 104.956 18.944C103.836 18.944 102.922 19.168 102.212 19.616C101.522 20.064 101.176 20.68 101.176 21.464C101.176 21.8933 101.288 22.304 101.512 22.696C101.755 23.088 102.091 23.4053 102.52 23.648C102.968 23.8907 103.519 24.012 104.172 24.012C104.844 24.012 105.488 23.8813 106.104 23.62C106.72 23.3587 107.215 23.0227 107.588 22.612ZM115.161 5.56H118.241V21.772C118.241 22.5187 118.353 22.9947 118.577 23.2C118.801 23.4053 119.081 23.508 119.417 23.508C119.79 23.508 120.136 23.4707 120.453 23.396C120.789 23.3213 121.078 23.228 121.321 23.116L121.769 25.552C121.321 25.7387 120.789 25.8973 120.173 26.028C119.557 26.1587 119.006 26.224 118.521 26.224C117.476 26.224 116.654 25.9347 116.057 25.356C115.46 24.7587 115.161 23.9373 115.161 22.892V5.56ZM122.631 18.692C122.631 17.292 122.911 16.0227 123.471 14.884C124.05 13.7267 124.834 12.812 125.823 12.14C126.812 11.4493 127.951 11.104 129.239 11.104C130.359 11.104 131.367 11.3933 132.263 11.972C133.178 12.5507 133.887 13.2693 134.391 14.128V5.56H137.471V22.528C137.471 22.8827 137.536 23.1347 137.667 23.284C137.798 23.4333 138.012 23.5173 138.311 23.536V26C137.732 26.0933 137.284 26.14 136.967 26.14C136.388 26.14 135.894 25.972 135.483 25.636C135.091 25.3 134.886 24.8987 134.867 24.432L134.839 23.34C134.279 24.2733 133.523 25.0013 132.571 25.524C131.619 26.028 130.63 26.28 129.603 26.28C128.595 26.28 127.662 26.084 126.803 25.692C125.963 25.3 125.226 24.7493 124.591 24.04C123.975 23.3307 123.49 22.5187 123.135 21.604C122.799 20.6893 122.631 19.7187 122.631 18.692ZM134.391 20.736V16.9C134.186 16.3027 133.85 15.7707 133.383 15.304C132.935 14.8187 132.422 14.436 131.843 14.156C131.283 13.876 130.723 13.736 130.163 13.736C129.51 13.736 128.912 13.876 128.371 14.156C127.848 14.436 127.391 14.8093 126.999 15.276C126.626 15.7427 126.336 16.2747 126.131 16.872C125.926 17.4693 125.823 18.0947 125.823 18.748C125.823 19.42 125.935 20.0547 126.159 20.652C126.383 21.2307 126.7 21.7533 127.111 22.22C127.54 22.668 128.026 23.0227 128.567 23.284C129.127 23.5267 129.734 23.648 130.387 23.648C130.798 23.648 131.208 23.5733 131.619 23.424C132.048 23.2747 132.45 23.0693 132.823 22.808C133.215 22.5467 133.542 22.2387 133.803 21.884C134.083 21.5293 134.279 21.1467 134.391 20.736ZM140.319 21.716C140.319 20.7827 140.58 19.9707 141.103 19.28C141.644 18.5707 142.382 18.0293 143.315 17.656C144.248 17.264 145.331 17.068 146.563 17.068C147.216 17.068 147.879 17.1147 148.551 17.208C149.242 17.3013 149.848 17.4507 150.371 17.656V16.732C150.371 15.7053 150.063 14.9027 149.447 14.324C148.831 13.7453 147.944 13.456 146.787 13.456C145.966 13.456 145.191 13.6053 144.463 13.904C143.735 14.184 142.96 14.5853 142.139 15.108L141.103 13.036C142.074 12.3827 143.044 11.8973 144.015 11.58C145.004 11.2627 146.04 11.104 147.123 11.104C149.083 11.104 150.623 11.6267 151.743 12.672C152.882 13.6987 153.451 15.164 153.451 17.068V22.528C153.451 22.8827 153.507 23.1347 153.619 23.284C153.75 23.4333 153.964 23.5173 154.263 23.536V26C153.983 26.056 153.731 26.0933 153.507 26.112C153.283 26.1307 153.096 26.14 152.947 26.14C152.294 26.14 151.799 25.9813 151.463 25.664C151.127 25.3467 150.931 24.9733 150.875 24.544L150.791 23.704C150.156 24.5253 149.344 25.16 148.355 25.608C147.366 26.056 146.367 26.28 145.359 26.28C144.388 26.28 143.52 26.084 142.755 25.692C141.99 25.2813 141.392 24.7307 140.963 24.04C140.534 23.3493 140.319 22.5747 140.319 21.716ZM149.643 22.612C149.867 22.3693 150.044 22.1267 150.175 21.884C150.306 21.6413 150.371 21.4267 150.371 21.24V19.56C149.848 19.3547 149.298 19.2053 148.719 19.112C148.14 19 147.571 18.944 147.011 18.944C145.891 18.944 144.976 19.168 144.267 19.616C143.576 20.064 143.231 20.68 143.231 21.464C143.231 21.8933 143.343 22.304 143.567 22.696C143.81 23.088 144.146 23.4053 144.575 23.648C145.023 23.8907 145.574 24.012 146.227 24.012C146.899 24.012 147.543 23.8813 148.159 23.62C148.775 23.3587 149.27 23.0227 149.643 22.612ZM170.32 26H167.24V17.796C167.24 16.4333 167.016 15.4347 166.568 14.8C166.139 14.1653 165.495 13.848 164.636 13.848C164.039 13.848 163.441 13.9973 162.844 14.296C162.265 14.5947 161.743 15.0053 161.276 15.528C160.809 16.032 160.473 16.62 160.268 17.292V26H157.188V11.356H159.988V14.296C160.361 13.6427 160.847 13.0827 161.444 12.616C162.06 12.1307 162.751 11.7573 163.516 11.496C164.281 11.2347 165.093 11.104 165.952 11.104C166.829 11.104 167.548 11.2627 168.108 11.58C168.687 11.8973 169.135 12.336 169.452 12.896C169.788 13.4373 170.012 14.072 170.124 14.8C170.255 15.5093 170.32 16.2653 170.32 17.068V26ZM187.027 26H183.947V17.796C183.947 16.4707 183.704 15.4813 183.219 14.828C182.734 14.1747 182.052 13.848 181.175 13.848C180.634 13.848 180.074 13.9973 179.495 14.296C178.916 14.5947 178.403 15.0053 177.955 15.528C177.507 16.032 177.18 16.62 176.975 17.292V26H173.895V5.56H176.975V14.296C177.535 13.3067 178.3 12.532 179.271 11.972C180.242 11.3933 181.287 11.104 182.407 11.104C183.322 11.104 184.078 11.2627 184.675 11.58C185.272 11.8973 185.739 12.336 186.075 12.896C186.43 13.4373 186.672 14.072 186.803 14.8C186.952 15.5093 187.027 16.2653 187.027 17.068V26ZM189.538 21.716C189.538 20.7827 189.799 19.9707 190.322 19.28C190.863 18.5707 191.601 18.0293 192.534 17.656C193.467 17.264 194.55 17.068 195.782 17.068C196.435 17.068 197.098 17.1147 197.77 17.208C198.461 17.3013 199.067 17.4507 199.59 17.656V16.732C199.59 15.7053 199.282 14.9027 198.666 14.324C198.05 13.7453 197.163 13.456 196.006 13.456C195.185 13.456 194.41 13.6053 193.682 13.904C192.954 14.184 192.179 14.5853 191.358 15.108L190.322 13.036C191.293 12.3827 192.263 11.8973 193.234 11.58C194.223 11.2627 195.259 11.104 196.342 11.104C198.302 11.104 199.842 11.6267 200.962 12.672C202.101 13.6987 202.67 15.164 202.67 17.068V22.528C202.67 22.8827 202.726 23.1347 202.838 23.284C202.969 23.4333 203.183 23.5173 203.482 23.536V26C203.202 26.056 202.95 26.0933 202.726 26.112C202.502 26.1307 202.315 26.14 202.166 26.14C201.513 26.14 201.018 25.9813 200.682 25.664C200.346 25.3467 200.15 24.9733 200.094 24.544L200.01 23.704C199.375 24.5253 198.563 25.16 197.574 25.608C196.585 26.056 195.586 26.28 194.578 26.28C193.607 26.28 192.739 26.084 191.974 25.692C191.209 25.2813 190.611 24.7307 190.182 24.04C189.753 23.3493 189.538 22.5747 189.538 21.716ZM198.862 22.612C199.086 22.3693 199.263 22.1267 199.394 21.884C199.525 21.6413 199.59 21.4267 199.59 21.24V19.56C199.067 19.3547 198.517 19.2053 197.938 19.112C197.359 19 196.79 18.944 196.23 18.944C195.11 18.944 194.195 19.168 193.486 19.616C192.795 20.064 192.45 20.68 192.45 21.464C192.45 21.8933 192.562 22.304 192.786 22.696C193.029 23.088 193.365 23.4053 193.794 23.648C194.242 23.8907 194.793 24.012 195.446 24.012C196.118 24.012 196.762 23.8813 197.378 23.62C197.994 23.3587 198.489 23.0227 198.862 22.612Z" fill="white"/>
<path d="M211.759 22.55C211.759 21.7987 211.974 21.1547 212.403 20.618C212.832 20.066 213.423 19.6443 214.174 19.353C214.941 19.0463 215.822 18.893 216.819 18.893C217.402 18.893 218.007 18.939 218.636 19.031C219.265 19.123 219.824 19.261 220.315 19.445V18.433C220.315 17.421 220.016 16.616 219.418 16.018C218.82 15.42 217.992 15.121 216.934 15.121C216.29 15.121 215.654 15.2437 215.025 15.489C214.412 15.719 213.768 16.064 213.093 16.524L212.495 15.42C213.277 14.8833 214.044 14.4847 214.795 14.224C215.546 13.948 216.313 13.81 217.095 13.81C218.567 13.81 219.732 14.2317 220.591 15.075C221.45 15.9183 221.879 17.0837 221.879 18.571V24.114C221.879 24.3287 221.925 24.4897 222.017 24.597C222.109 24.689 222.255 24.7427 222.454 24.758V26C222.285 26.0153 222.14 26.0307 222.017 26.046C221.894 26.0613 221.802 26.0613 221.741 26.046C221.358 26.0307 221.066 25.908 220.867 25.678C220.668 25.448 220.56 25.2027 220.545 24.942L220.522 24.068C219.985 24.758 219.288 25.2947 218.429 25.678C217.57 26.046 216.696 26.23 215.807 26.23C215.04 26.23 214.343 26.069 213.714 25.747C213.101 25.4097 212.618 24.965 212.265 24.413C211.928 23.8457 211.759 23.2247 211.759 22.55ZM219.786 23.47C219.955 23.2553 220.085 23.0483 220.177 22.849C220.269 22.6497 220.315 22.4733 220.315 22.32V20.572C219.794 20.3727 219.249 20.2193 218.682 20.112C218.13 20.0047 217.57 19.951 217.003 19.951C215.884 19.951 214.979 20.1733 214.289 20.618C213.599 21.0627 213.254 21.6683 213.254 22.435C213.254 22.8797 213.369 23.3013 213.599 23.7C213.829 24.0833 214.166 24.4053 214.611 24.666C215.056 24.9113 215.577 25.034 216.175 25.034C216.926 25.034 217.624 24.8883 218.268 24.597C218.927 24.3057 219.433 23.93 219.786 23.47ZM224.453 20.043C224.453 18.9083 224.683 17.8733 225.143 16.938C225.619 15.9873 226.27 15.2283 227.098 14.661C227.926 14.0937 228.869 13.81 229.927 13.81C230.924 13.81 231.813 14.0783 232.595 14.615C233.393 15.1363 234.014 15.7727 234.458 16.524V9.21H236.022V24.114C236.022 24.3287 236.068 24.4897 236.16 24.597C236.252 24.689 236.39 24.7427 236.574 24.758V26C236.268 26.046 236.03 26.0613 235.861 26.046C235.539 26.0307 235.256 25.9003 235.01 25.655C234.765 25.4097 234.642 25.1413 234.642 24.85V23.677C234.167 24.459 233.523 25.08 232.71 25.54C231.898 26 231.054 26.23 230.18 26.23C229.352 26.23 228.586 26.0613 227.88 25.724C227.19 25.3867 226.585 24.9267 226.063 24.344C225.557 23.7613 225.159 23.102 224.867 22.366C224.591 21.6147 224.453 20.8403 224.453 20.043ZM234.458 21.883V18.18C234.259 17.628 233.937 17.1297 233.492 16.685C233.048 16.225 232.542 15.8647 231.974 15.604C231.422 15.328 230.87 15.19 230.318 15.19C229.674 15.19 229.092 15.328 228.57 15.604C228.049 15.8647 227.597 16.225 227.213 16.685C226.845 17.145 226.562 17.6663 226.362 18.249C226.163 18.8317 226.063 19.4297 226.063 20.043C226.063 20.687 226.171 21.3003 226.385 21.883C226.615 22.4657 226.937 22.987 227.351 23.447C227.765 23.8917 228.241 24.2367 228.777 24.482C229.314 24.7273 229.897 24.85 230.525 24.85C230.924 24.85 231.338 24.7733 231.767 24.62C232.197 24.4667 232.603 24.2597 232.986 23.999C233.385 23.723 233.715 23.401 233.975 23.033C234.236 22.665 234.397 22.2817 234.458 21.883ZM243.131 26L238.278 14.017H239.911L244.005 24.436L248.122 14.017H249.663L244.81 26H243.131ZM256.531 26.23C255.673 26.23 254.875 26.069 254.139 25.747C253.419 25.4097 252.79 24.9573 252.253 24.39C251.732 23.8073 251.326 23.148 251.034 22.412C250.743 21.6607 250.597 20.871 250.597 20.043C250.597 19.1843 250.743 18.387 251.034 17.651C251.326 16.8997 251.74 16.2403 252.276 15.673C252.813 15.0903 253.442 14.638 254.162 14.316C254.898 13.9787 255.696 13.81 256.554 13.81C257.413 13.81 258.203 13.9787 258.923 14.316C259.644 14.638 260.273 15.0903 260.809 15.673C261.346 16.2403 261.76 16.8997 262.051 17.651C262.343 18.387 262.488 19.1843 262.488 20.043C262.488 20.871 262.343 21.6607 262.051 22.412C261.76 23.148 261.346 23.8073 260.809 24.39C260.288 24.9573 259.659 25.4097 258.923 25.747C258.203 26.069 257.405 26.23 256.531 26.23ZM252.184 20.066C252.184 20.9553 252.376 21.768 252.759 22.504C253.158 23.2247 253.687 23.7997 254.346 24.229C255.006 24.643 255.734 24.85 256.531 24.85C257.329 24.85 258.057 24.6353 258.716 24.206C259.376 23.7767 259.905 23.194 260.303 22.458C260.702 21.7067 260.901 20.894 260.901 20.02C260.901 19.1307 260.702 18.318 260.303 17.582C259.905 16.846 259.376 16.2633 258.716 15.834C258.057 15.4047 257.329 15.19 256.531 15.19C255.734 15.19 255.006 15.4123 254.346 15.857C253.702 16.3017 253.181 16.892 252.782 17.628C252.384 18.3487 252.184 19.1613 252.184 20.066ZM270.302 26.23C269.428 26.23 268.623 26.069 267.887 25.747C267.166 25.4097 266.53 24.9497 265.978 24.367C265.441 23.7843 265.02 23.1173 264.713 22.366C264.422 21.6147 264.276 20.8173 264.276 19.974C264.276 18.8393 264.529 17.8043 265.035 16.869C265.541 15.9337 266.246 15.19 267.151 14.638C268.056 14.086 269.098 13.81 270.279 13.81C271.398 13.81 272.387 14.0707 273.246 14.592C274.105 15.098 274.741 15.788 275.155 16.662L273.637 17.145C273.3 16.5317 272.824 16.0563 272.211 15.719C271.613 15.3663 270.946 15.19 270.21 15.19C269.413 15.19 268.684 15.397 268.025 15.811C267.366 16.225 266.837 16.7923 266.438 17.513C266.055 18.2337 265.863 19.054 265.863 19.974C265.863 20.8787 266.062 21.699 266.461 22.435C266.86 23.171 267.389 23.7613 268.048 24.206C268.707 24.6353 269.436 24.85 270.233 24.85C270.754 24.85 271.253 24.758 271.728 24.574C272.219 24.39 272.64 24.1447 272.993 23.838C273.361 23.516 273.606 23.171 273.729 22.803L275.27 23.263C275.055 23.8303 274.695 24.344 274.189 24.804C273.698 25.2487 273.116 25.6013 272.441 25.862C271.782 26.1073 271.069 26.23 270.302 26.23ZM276.761 22.55C276.761 21.7987 276.976 21.1547 277.405 20.618C277.834 20.066 278.425 19.6443 279.176 19.353C279.943 19.0463 280.824 18.893 281.821 18.893C282.404 18.893 283.009 18.939 283.638 19.031C284.267 19.123 284.826 19.261 285.317 19.445V18.433C285.317 17.421 285.018 16.616 284.42 16.018C283.822 15.42 282.994 15.121 281.936 15.121C281.292 15.121 280.656 15.2437 280.027 15.489C279.414 15.719 278.77 16.064 278.095 16.524L277.497 15.42C278.279 14.8833 279.046 14.4847 279.797 14.224C280.548 13.948 281.315 13.81 282.097 13.81C283.569 13.81 284.734 14.2317 285.593 15.075C286.452 15.9183 286.881 17.0837 286.881 18.571V24.114C286.881 24.3287 286.927 24.4897 287.019 24.597C287.111 24.689 287.257 24.7427 287.456 24.758V26C287.287 26.0153 287.142 26.0307 287.019 26.046C286.896 26.0613 286.804 26.0613 286.743 26.046C286.36 26.0307 286.068 25.908 285.869 25.678C285.67 25.448 285.562 25.2027 285.547 24.942L285.524 24.068C284.987 24.758 284.29 25.2947 283.431 25.678C282.572 26.046 281.698 26.23 280.809 26.23C280.042 26.23 279.345 26.069 278.716 25.747C278.103 25.4097 277.62 24.965 277.267 24.413C276.93 23.8457 276.761 23.2247 276.761 22.55ZM284.788 23.47C284.957 23.2553 285.087 23.0483 285.179 22.849C285.271 22.6497 285.317 22.4733 285.317 22.32V20.572C284.796 20.3727 284.251 20.2193 283.684 20.112C283.132 20.0047 282.572 19.951 282.005 19.951C280.886 19.951 279.981 20.1733 279.291 20.618C278.601 21.0627 278.256 21.6683 278.256 22.435C278.256 22.8797 278.371 23.3013 278.601 23.7C278.831 24.0833 279.168 24.4053 279.613 24.666C280.058 24.9113 280.579 25.034 281.177 25.034C281.928 25.034 282.626 24.8883 283.27 24.597C283.929 24.3057 284.435 23.93 284.788 23.47ZM295.458 26.23C294.584 26.23 293.779 26.069 293.043 25.747C292.322 25.4097 291.686 24.9497 291.134 24.367C290.597 23.7843 290.176 23.1173 289.869 22.366C289.578 21.6147 289.432 20.8173 289.432 19.974C289.432 18.8393 289.685 17.8043 290.191 16.869C290.697 15.9337 291.402 15.19 292.307 14.638C293.212 14.086 294.254 13.81 295.435 13.81C296.554 13.81 297.543 14.0707 298.402 14.592C299.261 15.098 299.897 15.788 300.311 16.662L298.793 17.145C298.456 16.5317 297.98 16.0563 297.367 15.719C296.769 15.3663 296.102 15.19 295.366 15.19C294.569 15.19 293.84 15.397 293.181 15.811C292.522 16.225 291.993 16.7923 291.594 17.513C291.211 18.2337 291.019 19.054 291.019 19.974C291.019 20.8787 291.218 21.699 291.617 22.435C292.016 23.171 292.545 23.7613 293.204 24.206C293.863 24.6353 294.592 24.85 295.389 24.85C295.91 24.85 296.409 24.758 296.884 24.574C297.375 24.39 297.796 24.1447 298.149 23.838C298.517 23.516 298.762 23.171 298.885 22.803L300.426 23.263C300.211 23.8303 299.851 24.344 299.345 24.804C298.854 25.2487 298.272 25.6013 297.597 25.862C296.938 26.1073 296.225 26.23 295.458 26.23ZM302.883 26V14.017H304.447V26H302.883ZM302.883 11.51V9.21H304.447V11.51H302.883ZM306.926 22.55C306.926 21.7987 307.141 21.1547 307.57 20.618C307.999 20.066 308.59 19.6443 309.341 19.353C310.108 19.0463 310.989 18.893 311.986 18.893C312.569 18.893 313.174 18.939 313.803 19.031C314.432 19.123 314.991 19.261 315.482 19.445V18.433C315.482 17.421 315.183 16.616 314.585 16.018C313.987 15.42 313.159 15.121 312.101 15.121C311.457 15.121 310.821 15.2437 310.192 15.489C309.579 15.719 308.935 16.064 308.26 16.524L307.662 15.42C308.444 14.8833 309.211 14.4847 309.962 14.224C310.713 13.948 311.48 13.81 312.262 13.81C313.734 13.81 314.899 14.2317 315.758 15.075C316.617 15.9183 317.046 17.0837 317.046 18.571V24.114C317.046 24.3287 317.092 24.4897 317.184 24.597C317.276 24.689 317.422 24.7427 317.621 24.758V26C317.452 26.0153 317.307 26.0307 317.184 26.046C317.061 26.0613 316.969 26.0613 316.908 26.046C316.525 26.0307 316.233 25.908 316.034 25.678C315.835 25.448 315.727 25.2027 315.712 24.942L315.689 24.068C315.152 24.758 314.455 25.2947 313.596 25.678C312.737 26.046 311.863 26.23 310.974 26.23C310.207 26.23 309.51 26.069 308.881 25.747C308.268 25.4097 307.785 24.965 307.432 24.413C307.095 23.8457 306.926 23.2247 306.926 22.55ZM314.953 23.47C315.122 23.2553 315.252 23.0483 315.344 22.849C315.436 22.6497 315.482 22.4733 315.482 22.32V20.572C314.961 20.3727 314.416 20.2193 313.849 20.112C313.297 20.0047 312.737 19.951 312.17 19.951C311.051 19.951 310.146 20.1733 309.456 20.618C308.766 21.0627 308.421 21.6683 308.421 22.435C308.421 22.8797 308.536 23.3013 308.766 23.7C308.996 24.0833 309.333 24.4053 309.778 24.666C310.223 24.9113 310.744 25.034 311.342 25.034C312.093 25.034 312.791 24.8883 313.435 24.597C314.094 24.3057 314.6 23.93 314.953 23.47Z" fill="#FFE161"/>
</svg>
