<svg width="205" height="50" viewBox="0 0 205 50" fill="none" xmlns="http://www.w3.org/2000/svg">
<path d="M9.38 13.092C8.11067 13.1293 6.99067 13.484 6.02 14.156C5.068 14.828 4.396 15.752 4.004 16.928V26H2.1V11.412H3.892V14.912C4.396 13.8853 5.05867 13.0547 5.88 12.42C6.72 11.7853 7.60667 11.4307 8.54 11.356C8.72667 11.3373 8.88533 11.328 9.016 11.328C9.16533 11.328 9.28667 11.3373 9.38 11.356V13.092ZM10.6857 21.8C10.6857 20.8853 10.9471 20.1013 11.4697 19.448C11.9924 18.776 12.7111 18.2627 13.6257 17.908C14.5591 17.5347 15.6324 17.348 16.8457 17.348C17.5551 17.348 18.2924 17.404 19.0577 17.516C19.8231 17.628 20.5044 17.796 21.1017 18.02V16.788C21.1017 15.556 20.7377 14.576 20.0097 13.848C19.2817 13.12 18.2737 12.756 16.9857 12.756C16.2017 12.756 15.4271 12.9053 14.6617 13.204C13.9151 13.484 13.1311 13.904 12.3097 14.464L11.5817 13.12C12.5337 12.4667 13.4671 11.9813 14.3817 11.664C15.2964 11.328 16.2297 11.16 17.1817 11.16C18.9737 11.16 20.3924 11.6733 21.4377 12.7C22.4831 13.7267 23.0057 15.1453 23.0057 16.956V23.704C23.0057 23.9653 23.0617 24.1613 23.1737 24.292C23.2857 24.404 23.4631 24.4693 23.7057 24.488V26C23.5004 26.0187 23.3231 26.0373 23.1737 26.056C23.0244 26.0747 22.9124 26.0747 22.8377 26.056C22.3711 26.0373 22.0164 25.888 21.7737 25.608C21.5311 25.328 21.4004 25.0293 21.3817 24.712L21.3537 23.648C20.7004 24.488 19.8511 25.1413 18.8057 25.608C17.7604 26.056 16.6964 26.28 15.6137 26.28C14.6804 26.28 13.8311 26.084 13.0657 25.692C12.3191 25.2813 11.7311 24.74 11.3017 24.068C10.8911 23.3773 10.6857 22.6213 10.6857 21.8ZM20.4577 22.92C20.6631 22.6587 20.8217 22.4067 20.9337 22.164C21.0457 21.9213 21.1017 21.7067 21.1017 21.52V19.392C20.4671 19.1493 19.8044 18.9627 19.1137 18.832C18.4417 18.7013 17.7604 18.636 17.0697 18.636C15.7071 18.636 14.6057 18.9067 13.7657 19.448C12.9257 19.9893 12.5057 20.7267 12.5057 21.66C12.5057 22.2013 12.6457 22.7147 12.9257 23.2C13.2057 23.6667 13.6164 24.0587 14.1577 24.376C14.6991 24.6747 15.3337 24.824 16.0617 24.824C16.9764 24.824 17.8257 24.6467 18.6097 24.292C19.4124 23.9373 20.0284 23.48 20.4577 22.92ZM48.8195 26H46.9155V17.852C46.9155 16.1533 46.6449 14.9027 46.1035 14.1C45.5622 13.2973 44.7595 12.896 43.6955 12.896C42.5942 12.896 41.6049 13.288 40.7275 14.072C39.8689 14.856 39.2622 15.864 38.9075 17.096V26H37.0035V17.852C37.0035 16.1347 36.7422 14.884 36.2195 14.1C35.6969 13.2973 34.8942 12.896 33.8115 12.896C32.7289 12.896 31.7489 13.2787 30.8715 14.044C29.9942 14.8093 29.3782 15.8173 29.0235 17.068V26H27.1195V11.412H28.8555V14.716C29.4715 13.5773 30.2555 12.7 31.2075 12.084C32.1782 11.468 33.2515 11.16 34.4275 11.16C35.6409 11.16 36.6209 11.5053 37.3675 12.196C38.1142 12.8867 38.5715 13.792 38.7395 14.912C39.4115 13.68 40.2142 12.7467 41.1475 12.112C42.0995 11.4773 43.1729 11.16 44.3675 11.16C45.1889 11.16 45.8795 11.3093 46.4395 11.608C47.0182 11.9067 47.4755 12.336 47.8115 12.896C48.1662 13.4373 48.4182 14.1 48.5675 14.884C48.7355 15.6493 48.8195 16.508 48.8195 17.46V26ZM59.066 26.28C58.0207 26.28 57.05 26.084 56.154 25.692C55.2767 25.2813 54.5113 24.7307 53.858 24.04C53.2233 23.3307 52.7287 22.528 52.374 21.632C52.0193 20.7173 51.842 19.756 51.842 18.748C51.842 17.7027 52.0193 16.732 52.374 15.836C52.7287 14.9213 53.2327 14.1187 53.886 13.428C54.5393 12.7187 55.3047 12.168 56.182 11.776C57.078 11.3653 58.0487 11.16 59.094 11.16C60.1393 11.16 61.1007 11.3653 61.978 11.776C62.8553 12.168 63.6207 12.7187 64.274 13.428C64.9273 14.1187 65.4313 14.9213 65.786 15.836C66.1407 16.732 66.318 17.7027 66.318 18.748C66.318 19.756 66.1407 20.7173 65.786 21.632C65.4313 22.528 64.9273 23.3307 64.274 24.04C63.6393 24.7307 62.874 25.2813 61.978 25.692C61.1007 26.084 60.13 26.28 59.066 26.28ZM53.774 18.776C53.774 19.8587 54.0073 20.848 54.474 21.744C54.9593 22.6213 55.6033 23.3213 56.406 23.844C57.2087 24.348 58.0953 24.6 59.066 24.6C60.0367 24.6 60.9233 24.3387 61.726 23.816C62.5287 23.2933 63.1727 22.584 63.658 21.688C64.1433 20.7733 64.386 19.784 64.386 18.72C64.386 17.6373 64.1433 16.648 63.658 15.752C63.1727 14.856 62.5287 14.1467 61.726 13.624C60.9233 13.1013 60.0367 12.84 59.066 12.84C58.0953 12.84 57.2087 13.1107 56.406 13.652C55.622 14.1933 54.9873 14.912 54.502 15.808C54.0167 16.6853 53.774 17.6747 53.774 18.776ZM81.7663 26H79.8623V17.852C79.8623 16.1347 79.6103 14.884 79.1063 14.1C78.6023 13.2973 77.809 12.896 76.7263 12.896C75.9797 12.896 75.2423 13.0827 74.5143 13.456C73.7863 13.8107 73.1423 14.3053 72.5823 14.94C72.041 15.556 71.649 16.2653 71.4063 17.068V26H69.5023V11.412H71.2383V14.716C71.6303 14.0067 72.1437 13.3907 72.7783 12.868C73.413 12.3267 74.1317 11.9067 74.9343 11.608C75.737 11.3093 76.5677 11.16 77.4263 11.16C78.229 11.16 78.9103 11.3093 79.4703 11.608C80.0303 11.9067 80.4783 12.336 80.8143 12.896C81.1503 13.4373 81.393 14.1 81.5423 14.884C81.6917 15.6493 81.7663 16.508 81.7663 17.46V26ZM90.7826 26.28C89.5506 26.28 88.3839 26.084 87.2826 25.692C86.1812 25.2813 85.2386 24.6747 84.4546 23.872L85.6026 21.8C86.4426 22.5467 87.2826 23.088 88.1226 23.424C88.9812 23.76 89.8306 23.928 90.6706 23.928C91.5292 23.928 92.2292 23.7693 92.7706 23.452C93.3119 23.116 93.5826 22.6307 93.5826 21.996C93.5826 21.5293 93.4426 21.184 93.1626 20.96C92.8826 20.736 92.4719 20.54 91.9306 20.372C91.4079 20.204 90.7732 20.0173 90.0266 19.812C88.9812 19.4947 88.1039 19.168 87.3946 18.832C86.6852 18.4773 86.1532 18.048 85.7986 17.544C85.4439 17.04 85.2666 16.396 85.2666 15.612C85.2666 14.66 85.5092 13.848 85.9946 13.176C86.4799 12.504 87.1519 11.9907 88.0106 11.636C88.8879 11.2813 89.8959 11.104 91.0346 11.104C92.0986 11.104 93.0786 11.272 93.9746 11.608C94.8892 11.9253 95.6919 12.4293 96.3826 13.12L95.0666 15.164C94.4132 14.5667 93.7412 14.128 93.0506 13.848C92.3786 13.568 91.6506 13.428 90.8666 13.428C90.4186 13.428 89.9892 13.484 89.5786 13.596C89.1679 13.6893 88.8226 13.876 88.5426 14.156C88.2812 14.4173 88.1506 14.7907 88.1506 15.276C88.1506 15.668 88.2626 15.9853 88.4866 16.228C88.7106 16.4707 89.0466 16.676 89.4946 16.844C89.9426 17.012 90.4932 17.1987 91.1466 17.404C92.2852 17.74 93.2559 18.076 94.0586 18.412C94.8612 18.7293 95.4772 19.1493 95.9066 19.672C96.3546 20.176 96.5786 20.876 96.5786 21.772C96.5786 23.1907 96.0466 24.3013 94.9826 25.104C93.9372 25.888 92.5372 26.28 90.7826 26.28ZM98.2645 21.716C98.2645 20.7827 98.5258 19.9707 99.0485 19.28C99.5898 18.5707 100.327 18.0293 101.26 17.656C102.194 17.264 103.276 17.068 104.508 17.068C105.162 17.068 105.824 17.1147 106.496 17.208C107.187 17.3013 107.794 17.4507 108.316 17.656V16.732C108.316 15.7053 108.008 14.9027 107.392 14.324C106.776 13.7453 105.89 13.456 104.732 13.456C103.911 13.456 103.136 13.6053 102.408 13.904C101.68 14.184 100.906 14.5853 100.084 15.108L99.0485 13.036C100.019 12.3827 100.99 11.8973 101.96 11.58C102.95 11.2627 103.986 11.104 105.068 11.104C107.028 11.104 108.568 11.6267 109.688 12.672C110.827 13.6987 111.396 15.164 111.396 17.068V22.528C111.396 22.8827 111.452 23.1347 111.564 23.284C111.695 23.4333 111.91 23.5173 112.208 23.536V26C111.928 26.056 111.676 26.0933 111.452 26.112C111.228 26.1307 111.042 26.14 110.892 26.14C110.239 26.14 109.744 25.9813 109.408 25.664C109.072 25.3467 108.876 24.9733 108.82 24.544L108.736 23.704C108.102 24.5253 107.29 25.16 106.3 25.608C105.311 26.056 104.312 26.28 103.304 26.28C102.334 26.28 101.466 26.084 100.7 25.692C99.9351 25.2813 99.3378 24.7307 98.9085 24.04C98.4791 23.3493 98.2645 22.5747 98.2645 21.716ZM107.588 22.612C107.812 22.3693 107.99 22.1267 108.12 21.884C108.251 21.6413 108.316 21.4267 108.316 21.24V19.56C107.794 19.3547 107.243 19.2053 106.664 19.112C106.086 19 105.516 18.944 104.956 18.944C103.836 18.944 102.922 19.168 102.212 19.616C101.522 20.064 101.176 20.68 101.176 21.464C101.176 21.8933 101.288 22.304 101.512 22.696C101.755 23.088 102.091 23.4053 102.52 23.648C102.968 23.8907 103.519 24.012 104.172 24.012C104.844 24.012 105.488 23.8813 106.104 23.62C106.72 23.3587 107.215 23.0227 107.588 22.612ZM115.161 5.56H118.241V21.772C118.241 22.5187 118.353 22.9947 118.577 23.2C118.801 23.4053 119.081 23.508 119.417 23.508C119.79 23.508 120.136 23.4707 120.453 23.396C120.789 23.3213 121.078 23.228 121.321 23.116L121.769 25.552C121.321 25.7387 120.789 25.8973 120.173 26.028C119.557 26.1587 119.006 26.224 118.521 26.224C117.476 26.224 116.654 25.9347 116.057 25.356C115.46 24.7587 115.161 23.9373 115.161 22.892V5.56ZM122.631 18.692C122.631 17.292 122.911 16.0227 123.471 14.884C124.05 13.7267 124.834 12.812 125.823 12.14C126.812 11.4493 127.951 11.104 129.239 11.104C130.359 11.104 131.367 11.3933 132.263 11.972C133.178 12.5507 133.887 13.2693 134.391 14.128V5.56H137.471V22.528C137.471 22.8827 137.536 23.1347 137.667 23.284C137.798 23.4333 138.012 23.5173 138.311 23.536V26C137.732 26.0933 137.284 26.14 136.967 26.14C136.388 26.14 135.894 25.972 135.483 25.636C135.091 25.3 134.886 24.8987 134.867 24.432L134.839 23.34C134.279 24.2733 133.523 25.0013 132.571 25.524C131.619 26.028 130.63 26.28 129.603 26.28C128.595 26.28 127.662 26.084 126.803 25.692C125.963 25.3 125.226 24.7493 124.591 24.04C123.975 23.3307 123.49 22.5187 123.135 21.604C122.799 20.6893 122.631 19.7187 122.631 18.692ZM134.391 20.736V16.9C134.186 16.3027 133.85 15.7707 133.383 15.304C132.935 14.8187 132.422 14.436 131.843 14.156C131.283 13.876 130.723 13.736 130.163 13.736C129.51 13.736 128.912 13.876 128.371 14.156C127.848 14.436 127.391 14.8093 126.999 15.276C126.626 15.7427 126.336 16.2747 126.131 16.872C125.926 17.4693 125.823 18.0947 125.823 18.748C125.823 19.42 125.935 20.0547 126.159 20.652C126.383 21.2307 126.7 21.7533 127.111 22.22C127.54 22.668 128.026 23.0227 128.567 23.284C129.127 23.5267 129.734 23.648 130.387 23.648C130.798 23.648 131.208 23.5733 131.619 23.424C132.048 23.2747 132.45 23.0693 132.823 22.808C133.215 22.5467 133.542 22.2387 133.803 21.884C134.083 21.5293 134.279 21.1467 134.391 20.736ZM140.319 21.716C140.319 20.7827 140.58 19.9707 141.103 19.28C141.644 18.5707 142.382 18.0293 143.315 17.656C144.248 17.264 145.331 17.068 146.563 17.068C147.216 17.068 147.879 17.1147 148.551 17.208C149.242 17.3013 149.848 17.4507 150.371 17.656V16.732C150.371 15.7053 150.063 14.9027 149.447 14.324C148.831 13.7453 147.944 13.456 146.787 13.456C145.966 13.456 145.191 13.6053 144.463 13.904C143.735 14.184 142.96 14.5853 142.139 15.108L141.103 13.036C142.074 12.3827 143.044 11.8973 144.015 11.58C145.004 11.2627 146.04 11.104 147.123 11.104C149.083 11.104 150.623 11.6267 151.743 12.672C152.882 13.6987 153.451 15.164 153.451 17.068V22.528C153.451 22.8827 153.507 23.1347 153.619 23.284C153.75 23.4333 153.964 23.5173 154.263 23.536V26C153.983 26.056 153.731 26.0933 153.507 26.112C153.283 26.1307 153.096 26.14 152.947 26.14C152.294 26.14 151.799 25.9813 151.463 25.664C151.127 25.3467 150.931 24.9733 150.875 24.544L150.791 23.704C150.156 24.5253 149.344 25.16 148.355 25.608C147.366 26.056 146.367 26.28 145.359 26.28C144.388 26.28 143.52 26.084 142.755 25.692C141.99 25.2813 141.392 24.7307 140.963 24.04C140.534 23.3493 140.319 22.5747 140.319 21.716ZM149.643 22.612C149.867 22.3693 150.044 22.1267 150.175 21.884C150.306 21.6413 150.371 21.4267 150.371 21.24V19.56C149.848 19.3547 149.298 19.2053 148.719 19.112C148.14 19 147.571 18.944 147.011 18.944C145.891 18.944 144.976 19.168 144.267 19.616C143.576 20.064 143.231 20.68 143.231 21.464C143.231 21.8933 143.343 22.304 143.567 22.696C143.81 23.088 144.146 23.4053 144.575 23.648C145.023 23.8907 145.574 24.012 146.227 24.012C146.899 24.012 147.543 23.8813 148.159 23.62C148.775 23.3587 149.27 23.0227 149.643 22.612ZM170.32 26H167.24V17.796C167.24 16.4333 167.016 15.4347 166.568 14.8C166.139 14.1653 165.495 13.848 164.636 13.848C164.039 13.848 163.441 13.9973 162.844 14.296C162.265 14.5947 161.743 15.0053 161.276 15.528C160.809 16.032 160.473 16.62 160.268 17.292V26H157.188V11.356H159.988V14.296C160.361 13.6427 160.847 13.0827 161.444 12.616C162.06 12.1307 162.751 11.7573 163.516 11.496C164.281 11.2347 165.093 11.104 165.952 11.104C166.829 11.104 167.548 11.2627 168.108 11.58C168.687 11.8973 169.135 12.336 169.452 12.896C169.788 13.4373 170.012 14.072 170.124 14.8C170.255 15.5093 170.32 16.2653 170.32 17.068V26ZM187.027 26H183.947V17.796C183.947 16.4707 183.704 15.4813 183.219 14.828C182.734 14.1747 182.052 13.848 181.175 13.848C180.634 13.848 180.074 13.9973 179.495 14.296C178.916 14.5947 178.403 15.0053 177.955 15.528C177.507 16.032 177.18 16.62 176.975 17.292V26H173.895V5.56H176.975V14.296C177.535 13.3067 178.3 12.532 179.271 11.972C180.242 11.3933 181.287 11.104 182.407 11.104C183.322 11.104 184.078 11.2627 184.675 11.58C185.272 11.8973 185.739 12.336 186.075 12.896C186.43 13.4373 186.672 14.072 186.803 14.8C186.952 15.5093 187.027 16.2653 187.027 17.068V26ZM189.538 21.716C189.538 20.7827 189.799 19.9707 190.322 19.28C190.863 18.5707 191.601 18.0293 192.534 17.656C193.467 17.264 194.55 17.068 195.782 17.068C196.435 17.068 197.098 17.1147 197.77 17.208C198.461 17.3013 199.067 17.4507 199.59 17.656V16.732C199.59 15.7053 199.282 14.9027 198.666 14.324C198.05 13.7453 197.163 13.456 196.006 13.456C195.185 13.456 194.41 13.6053 193.682 13.904C192.954 14.184 192.179 14.5853 191.358 15.108L190.322 13.036C191.293 12.3827 192.263 11.8973 193.234 11.58C194.223 11.2627 195.259 11.104 196.342 11.104C198.302 11.104 199.842 11.6267 200.962 12.672C202.101 13.6987 202.67 15.164 202.67 17.068V22.528C202.67 22.8827 202.726 23.1347 202.838 23.284C202.969 23.4333 203.183 23.5173 203.482 23.536V26C203.202 26.056 202.95 26.0933 202.726 26.112C202.502 26.1307 202.315 26.14 202.166 26.14C201.513 26.14 201.018 25.9813 200.682 25.664C200.346 25.3467 200.15 24.9733 200.094 24.544L200.01 23.704C199.375 24.5253 198.563 25.16 197.574 25.608C196.585 26.056 195.586 26.28 194.578 26.28C193.607 26.28 192.739 26.084 191.974 25.692C191.209 25.2813 190.611 24.7307 190.182 24.04C189.753 23.3493 189.538 22.5747 189.538 21.716ZM198.862 22.612C199.086 22.3693 199.263 22.1267 199.394 21.884C199.525 21.6413 199.59 21.4267 199.59 21.24V19.56C199.067 19.3547 198.517 19.2053 197.938 19.112C197.359 19 196.79 18.944 196.23 18.944C195.11 18.944 194.195 19.168 193.486 19.616C192.795 20.064 192.45 20.68 192.45 21.464C192.45 21.8933 192.562 22.304 192.786 22.696C193.029 23.088 193.365 23.4053 193.794 23.648C194.242 23.8907 194.793 24.012 195.446 24.012C196.118 24.012 196.762 23.8813 197.378 23.62C197.994 23.3587 198.489 23.0227 198.862 22.612Z" fill="white"/>
<path d="M46.759 41.55C46.759 40.7987 46.9737 40.1547 47.403 39.618C47.8323 39.066 48.4227 38.6443 49.174 38.353C49.9407 38.0463 50.8223 37.893 51.819 37.893C52.4017 37.893 53.0073 37.939 53.636 38.031C54.2647 38.123 54.8243 38.261 55.315 38.445V37.433C55.315 36.421 55.016 35.616 54.418 35.018C53.82 34.42 52.992 34.121 51.934 34.121C51.29 34.121 50.6537 34.2437 50.025 34.489C49.4117 34.719 48.7677 35.064 48.093 35.524L47.495 34.42C48.277 33.8833 49.0437 33.4847 49.795 33.224C50.5463 32.948 51.313 32.81 52.095 32.81C53.567 32.81 54.7323 33.2317 55.591 34.075C56.4497 34.9183 56.879 36.0837 56.879 37.571V43.114C56.879 43.3287 56.925 43.4897 57.017 43.597C57.109 43.689 57.2547 43.7427 57.454 43.758V45C57.2853 45.0153 57.1397 45.0307 57.017 45.046C56.8943 45.0613 56.8023 45.0613 56.741 45.046C56.3577 45.0307 56.0663 44.908 55.867 44.678C55.6677 44.448 55.5603 44.2027 55.545 43.942L55.522 43.068C54.9853 43.758 54.2877 44.2947 53.429 44.678C52.5703 45.046 51.6963 45.23 50.807 45.23C50.0403 45.23 49.3427 45.069 48.714 44.747C48.1007 44.4097 47.6177 43.965 47.265 43.413C46.9277 42.8457 46.759 42.2247 46.759 41.55ZM54.786 42.47C54.9547 42.2553 55.085 42.0483 55.177 41.849C55.269 41.6497 55.315 41.4733 55.315 41.32V39.572C54.7937 39.3727 54.2493 39.2193 53.682 39.112C53.13 39.0047 52.5703 38.951 52.003 38.951C50.8837 38.951 49.979 39.1733 49.289 39.618C48.599 40.0627 48.254 40.6683 48.254 41.435C48.254 41.8797 48.369 42.3013 48.599 42.7C48.829 43.0833 49.1663 43.4053 49.611 43.666C50.0557 43.9113 50.577 44.034 51.175 44.034C51.9263 44.034 52.624 43.8883 53.268 43.597C53.9273 43.3057 54.4333 42.93 54.786 42.47ZM59.4532 39.043C59.4532 37.9083 59.6832 36.8733 60.1432 35.938C60.6185 34.9873 61.2702 34.2283 62.0982 33.661C62.9262 33.0937 63.8692 32.81 64.9272 32.81C65.9239 32.81 66.8132 33.0783 67.5952 33.615C68.3925 34.1363 69.0135 34.7727 69.4582 35.524V28.21H71.0222V43.114C71.0222 43.3287 71.0682 43.4897 71.1602 43.597C71.2522 43.689 71.3902 43.7427 71.5742 43.758V45C71.2675 45.046 71.0299 45.0613 70.8612 45.046C70.5392 45.0307 70.2555 44.9003 70.0102 44.655C69.7649 44.4097 69.6422 44.1413 69.6422 43.85V42.677C69.1669 43.459 68.5229 44.08 67.7102 44.54C66.8975 45 66.0542 45.23 65.1802 45.23C64.3522 45.23 63.5855 45.0613 62.8802 44.724C62.1902 44.3867 61.5845 43.9267 61.0632 43.344C60.5572 42.7613 60.1585 42.102 59.8672 41.366C59.5912 40.6147 59.4532 39.8403 59.4532 39.043ZM69.4582 40.883V37.18C69.2589 36.628 68.9369 36.1297 68.4922 35.685C68.0475 35.225 67.5415 34.8647 66.9742 34.604C66.4222 34.328 65.8702 34.19 65.3182 34.19C64.6742 34.19 64.0915 34.328 63.5702 34.604C63.0489 34.8647 62.5965 35.225 62.2132 35.685C61.8452 36.145 61.5615 36.6663 61.3622 37.249C61.1629 37.8317 61.0632 38.4297 61.0632 39.043C61.0632 39.687 61.1705 40.3003 61.3852 40.883C61.6152 41.4657 61.9372 41.987 62.3512 42.447C62.7652 42.8917 63.2405 43.2367 63.7772 43.482C64.3139 43.7273 64.8965 43.85 65.5252 43.85C65.9239 43.85 66.3379 43.7733 66.7672 43.62C67.1965 43.4667 67.6029 43.2597 67.9862 42.999C68.3849 42.723 68.7145 42.401 68.9752 42.033C69.2359 41.665 69.3969 41.2817 69.4582 40.883ZM78.1308 45L73.2778 33.017H74.9108L79.0048 43.436L83.1218 33.017H84.6628L79.8098 45H78.1308ZM91.5312 45.23C90.6725 45.23 89.8752 45.069 89.1392 44.747C88.4185 44.4097 87.7899 43.9573 87.2532 43.39C86.7319 42.8073 86.3255 42.148 86.0342 41.412C85.7429 40.6607 85.5972 39.871 85.5972 39.043C85.5972 38.1843 85.7429 37.387 86.0342 36.651C86.3255 35.8997 86.7395 35.2403 87.2762 34.673C87.8129 34.0903 88.4415 33.638 89.1622 33.316C89.8982 32.9787 90.6955 32.81 91.5542 32.81C92.4129 32.81 93.2025 32.9787 93.9232 33.316C94.6439 33.638 95.2725 34.0903 95.8092 34.673C96.3459 35.2403 96.7599 35.8997 97.0512 36.651C97.3425 37.387 97.4882 38.1843 97.4882 39.043C97.4882 39.871 97.3425 40.6607 97.0512 41.412C96.7599 42.148 96.3459 42.8073 95.8092 43.39C95.2879 43.9573 94.6592 44.4097 93.9232 44.747C93.2025 45.069 92.4052 45.23 91.5312 45.23ZM87.1842 39.066C87.1842 39.9553 87.3759 40.768 87.7592 41.504C88.1579 42.2247 88.6869 42.7997 89.3462 43.229C90.0055 43.643 90.7339 43.85 91.5312 43.85C92.3285 43.85 93.0569 43.6353 93.7162 43.206C94.3755 42.7767 94.9045 42.194 95.3032 41.458C95.7019 40.7067 95.9012 39.894 95.9012 39.02C95.9012 38.1307 95.7019 37.318 95.3032 36.582C94.9045 35.846 94.3755 35.2633 93.7162 34.834C93.0569 34.4047 92.3285 34.19 91.5312 34.19C90.7339 34.19 90.0055 34.4123 89.3462 34.857C88.7022 35.3017 88.1809 35.892 87.7822 36.628C87.3835 37.3487 87.1842 38.1613 87.1842 39.066ZM105.302 45.23C104.428 45.23 103.623 45.069 102.887 44.747C102.166 44.4097 101.53 43.9497 100.978 43.367C100.441 42.7843 100.02 42.1173 99.7129 41.366C99.4216 40.6147 99.2759 39.8173 99.2759 38.974C99.2759 37.8393 99.5289 36.8043 100.035 35.869C100.541 34.9337 101.246 34.19 102.151 33.638C103.056 33.086 104.098 32.81 105.279 32.81C106.398 32.81 107.387 33.0707 108.246 33.592C109.105 34.098 109.741 34.788 110.155 35.662L108.637 36.145C108.3 35.5317 107.824 35.0563 107.211 34.719C106.613 34.3663 105.946 34.19 105.21 34.19C104.413 34.19 103.684 34.397 103.025 34.811C102.366 35.225 101.837 35.7923 101.438 36.513C101.055 37.2337 100.863 38.054 100.863 38.974C100.863 39.8787 101.062 40.699 101.461 41.435C101.86 42.171 102.389 42.7613 103.048 43.206C103.707 43.6353 104.436 43.85 105.233 43.85C105.754 43.85 106.253 43.758 106.728 43.574C107.219 43.39 107.64 43.1447 107.993 42.838C108.361 42.516 108.606 42.171 108.729 41.803L110.27 42.263C110.055 42.8303 109.695 43.344 109.189 43.804C108.698 44.2487 108.116 44.6013 107.441 44.862C106.782 45.1073 106.069 45.23 105.302 45.23ZM111.761 41.55C111.761 40.7987 111.976 40.1547 112.405 39.618C112.834 39.066 113.425 38.6443 114.176 38.353C114.943 38.0463 115.824 37.893 116.821 37.893C117.404 37.893 118.009 37.939 118.638 38.031C119.267 38.123 119.826 38.261 120.317 38.445V37.433C120.317 36.421 120.018 35.616 119.42 35.018C118.822 34.42 117.994 34.121 116.936 34.121C116.292 34.121 115.656 34.2437 115.027 34.489C114.414 34.719 113.77 35.064 113.095 35.524L112.497 34.42C113.279 33.8833 114.046 33.4847 114.797 33.224C115.548 32.948 116.315 32.81 117.097 32.81C118.569 32.81 119.734 33.2317 120.593 34.075C121.452 34.9183 121.881 36.0837 121.881 37.571V43.114C121.881 43.3287 121.927 43.4897 122.019 43.597C122.111 43.689 122.257 43.7427 122.456 43.758V45C122.287 45.0153 122.142 45.0307 122.019 45.046C121.896 45.0613 121.804 45.0613 121.743 45.046C121.36 45.0307 121.068 44.908 120.869 44.678C120.67 44.448 120.562 44.2027 120.547 43.942L120.524 43.068C119.987 43.758 119.29 44.2947 118.431 44.678C117.572 45.046 116.698 45.23 115.809 45.23C115.042 45.23 114.345 45.069 113.716 44.747C113.103 44.4097 112.62 43.965 112.267 43.413C111.93 42.8457 111.761 42.2247 111.761 41.55ZM119.788 42.47C119.957 42.2553 120.087 42.0483 120.179 41.849C120.271 41.6497 120.317 41.4733 120.317 41.32V39.572C119.796 39.3727 119.251 39.2193 118.684 39.112C118.132 39.0047 117.572 38.951 117.005 38.951C115.886 38.951 114.981 39.1733 114.291 39.618C113.601 40.0627 113.256 40.6683 113.256 41.435C113.256 41.8797 113.371 42.3013 113.601 42.7C113.831 43.0833 114.168 43.4053 114.613 43.666C115.058 43.9113 115.579 44.034 116.177 44.034C116.928 44.034 117.626 43.8883 118.27 43.597C118.929 43.3057 119.435 42.93 119.788 42.47ZM130.458 45.23C129.584 45.23 128.779 45.069 128.043 44.747C127.322 44.4097 126.686 43.9497 126.134 43.367C125.597 42.7843 125.176 42.1173 124.869 41.366C124.578 40.6147 124.432 39.8173 124.432 38.974C124.432 37.8393 124.685 36.8043 125.191 35.869C125.697 34.9337 126.402 34.19 127.307 33.638C128.212 33.086 129.254 32.81 130.435 32.81C131.554 32.81 132.543 33.0707 133.402 33.592C134.261 34.098 134.897 34.788 135.311 35.662L133.793 36.145C133.456 35.5317 132.98 35.0563 132.367 34.719C131.769 34.3663 131.102 34.19 130.366 34.19C129.569 34.19 128.84 34.397 128.181 34.811C127.522 35.225 126.993 35.7923 126.594 36.513C126.211 37.2337 126.019 38.054 126.019 38.974C126.019 39.8787 126.218 40.699 126.617 41.435C127.016 42.171 127.545 42.7613 128.204 43.206C128.863 43.6353 129.592 43.85 130.389 43.85C130.91 43.85 131.409 43.758 131.884 43.574C132.375 43.39 132.796 43.1447 133.149 42.838C133.517 42.516 133.762 42.171 133.885 41.803L135.426 42.263C135.211 42.8303 134.851 43.344 134.345 43.804C133.854 44.2487 133.272 44.6013 132.597 44.862C131.938 45.1073 131.225 45.23 130.458 45.23ZM137.883 45V33.017H139.447V45H137.883ZM137.883 30.51V28.21H139.447V30.51H137.883ZM141.926 41.55C141.926 40.7987 142.141 40.1547 142.57 39.618C142.999 39.066 143.59 38.6443 144.341 38.353C145.108 38.0463 145.989 37.893 146.986 37.893C147.569 37.893 148.174 37.939 148.803 38.031C149.432 38.123 149.991 38.261 150.482 38.445V37.433C150.482 36.421 150.183 35.616 149.585 35.018C148.987 34.42 148.159 34.121 147.101 34.121C146.457 34.121 145.821 34.2437 145.192 34.489C144.579 34.719 143.935 35.064 143.26 35.524L142.662 34.42C143.444 33.8833 144.211 33.4847 144.962 33.224C145.713 32.948 146.48 32.81 147.262 32.81C148.734 32.81 149.899 33.2317 150.758 34.075C151.617 34.9183 152.046 36.0837 152.046 37.571V43.114C152.046 43.3287 152.092 43.4897 152.184 43.597C152.276 43.689 152.422 43.7427 152.621 43.758V45C152.452 45.0153 152.307 45.0307 152.184 45.046C152.061 45.0613 151.969 45.0613 151.908 45.046C151.525 45.0307 151.233 44.908 151.034 44.678C150.835 44.448 150.727 44.2027 150.712 43.942L150.689 43.068C150.152 43.758 149.455 44.2947 148.596 44.678C147.737 45.046 146.863 45.23 145.974 45.23C145.207 45.23 144.51 45.069 143.881 44.747C143.268 44.4097 142.785 43.965 142.432 43.413C142.095 42.8457 141.926 42.2247 141.926 41.55ZM149.953 42.47C150.122 42.2553 150.252 42.0483 150.344 41.849C150.436 41.6497 150.482 41.4733 150.482 41.32V39.572C149.961 39.3727 149.416 39.2193 148.849 39.112C148.297 39.0047 147.737 38.951 147.17 38.951C146.051 38.951 145.146 39.1733 144.456 39.618C143.766 40.0627 143.421 40.6683 143.421 41.435C143.421 41.8797 143.536 42.3013 143.766 42.7C143.996 43.0833 144.333 43.4053 144.778 43.666C145.223 43.9113 145.744 44.034 146.342 44.034C147.093 44.034 147.791 43.8883 148.435 43.597C149.094 43.3057 149.6 42.93 149.953 42.47Z" fill="#FFE161"/>
</svg>
